<svg width="281" height="205" viewBox="0 0 281 205" fill="none" xmlns="http://www.w3.org/2000/svg">
<g filter="url(#filter0_d_74_372)">
<mask id="mask0_74_372" style="mask-type:luminance" maskUnits="userSpaceOnUse" x="92" y="74" width="50" height="62">
<path d="M92.916 74.6201H141.097V135.408H92.916V74.6201Z" fill="white"/>
</mask>
<g mask="url(#mask0_74_372)">
<path d="M140.223 103.258C140.015 103.227 139.786 103.245 139.578 103.266C138.345 103.413 137.12 103.582 135.887 103.712C135.031 103.803 134.165 103.85 133.3 103.911C133.339 103.786 133.395 103.773 133.447 103.764C134.313 103.613 135.191 103.483 136.043 103.288C136.653 103.154 136.982 102.73 136.947 102.271C136.908 101.765 136.532 101.454 135.965 101.358C135.515 101.285 135.031 101.315 134.563 101.337C132.673 101.415 130.791 101.505 128.9 101.583C128.692 101.592 128.485 101.553 128.277 101.536C128.961 101.397 129.64 101.358 130.315 101.276C131.072 101.185 131.435 100.861 131.388 100.381C131.34 99.883 130.968 99.6667 130.163 99.6451C126.754 99.5542 123.397 99.2384 120.147 98.3384C119.511 98.161 118.884 97.9447 118.257 97.7457C118.395 97.6462 118.486 97.6635 118.581 97.6721C120.532 97.9231 122.665 98.4726 124.643 98.174C124.872 98.1394 125.149 98.0312 125.149 97.8019C125.149 97.5726 124.863 97.4645 124.634 97.4082C122.921 97.0491 121.229 96.5689 119.581 95.9805C118.733 95.6733 117.889 95.3358 117.054 94.968C116.522 94.7301 115.133 94.3493 114.86 93.8215C114.821 93.6268 115.293 93.8648 115.648 93.9946C117.75 94.7777 120.044 94.8988 122.246 95.3358C122.683 95.418 123.219 95.4959 123.449 95.0589C123.686 94.6089 123.159 94.4402 122.804 94.2542C121.329 93.4884 119.845 92.7312 118.365 91.9741C117.011 91.2775 115.392 90.6977 114.194 89.7459C115.959 89.9838 117.737 90.2218 119.507 90.4684C119.676 90.4901 119.927 90.4122 119.866 90.2607C118.287 89.456 116.703 88.6426 115.129 87.8422C116.522 88.0109 117.915 88.1753 119.299 88.3398C119.529 88.37 119.836 88.3398 119.875 88.1148C119.905 87.9547 119.758 87.8162 119.628 87.7167C119.04 87.2884 118.382 86.9812 117.72 86.6784C116.552 86.1332 115.38 85.5881 114.216 85.0472C114.705 84.9521 115.211 85.017 115.708 85.0775C116.405 85.1597 117.11 85.2463 117.815 85.3285C118.335 85.389 119.278 85.7135 119.719 85.3371C119.866 85.216 119.974 85.0472 120.057 84.8785C120.403 84.2209 120.576 83.494 120.693 82.7585C120.814 82.0057 121.013 81.3264 121.238 80.5995C121.679 79.1199 122.133 77.6445 122.592 76.1648C122.691 75.8533 122.644 75.7149 122.302 75.6067C119.987 74.8798 117.776 74.9707 115.678 76.2514C115.557 76.3249 115.293 76.3249 115.18 76.2514C113.13 74.9923 110.962 74.8885 108.686 75.5591C108.267 75.6846 108.167 75.8447 108.297 76.2557C108.717 77.6056 109.123 78.9598 109.53 80.314C109.746 81.0106 109.95 81.7158 110.157 82.4124C110.248 82.7196 110.348 83.0181 110.443 83.3253C110.525 83.6152 110.672 83.8661 110.793 84.1516C110.962 84.541 111.3 84.7877 111.641 84.9607C112.117 85.2073 112.602 85.4366 113.082 85.6573C113.567 85.8823 114.056 86.1029 114.544 86.3149C114.934 86.4923 115.509 86.9077 115.929 86.9509C115.111 86.8687 114.298 86.7822 113.48 86.6913C113.073 86.6481 112.446 86.5139 112.269 86.7995C111.97 87.2192 112.883 87.4874 113.311 87.6778C114.96 88.409 116.604 89.1272 118.248 89.8541C118.136 90.0617 117.192 89.8541 116.664 89.7675C116.643 89.7632 116.621 89.7632 116.587 89.7545C115.592 89.5858 114.592 89.4257 113.597 89.257C113.121 89.1791 112.636 89.2483 113.134 89.7243C113.212 89.7935 113.329 89.8367 113.42 89.893C115.808 91.2472 118.187 92.5928 120.576 93.9513C120.723 94.0335 120.853 94.1244 120.991 94.2195C118.473 93.9124 115.99 93.2677 113.519 92.7182C113.134 92.6317 112.736 92.5495 112.355 92.649C111.927 92.7615 112.714 93.1682 112.831 93.2461C113.052 93.3759 113.272 93.5143 113.502 93.6268C114.116 93.934 114.735 94.2412 115.358 94.5397C116.587 95.1454 117.828 95.7468 119.061 96.3525C119.468 96.5516 119.888 96.7116 120.303 96.889C120.277 96.9453 120.247 96.9885 120.225 97.0448C119.351 96.8068 118.425 96.6511 117.616 96.3136C115.687 95.5132 113.8 94.6219 111.91 93.7523C111.481 93.5533 110.326 93.4451 110.542 94.2844C110.586 94.4532 110.711 94.5873 110.841 94.7084C111.607 95.4569 112.424 96.1449 113.29 96.7765C112.065 96.4607 111.101 95.5045 109.898 95.0978C109.539 94.9767 109.132 94.9075 108.773 95.02C108.405 95.1454 108.098 95.4959 108.137 95.8809C108.167 96.2011 108.427 96.4521 108.673 96.6684C109.24 97.1746 109.798 97.6851 110.365 98.1913C109.552 97.763 108.734 97.3347 107.921 96.9063C107.587 96.729 107.233 96.5429 106.856 96.5299C106.415 96.5083 105.93 96.7809 105.839 97.2179C105.731 97.7241 106.155 98.1697 106.536 98.5028C110.616 101.99 115.799 104.019 121.091 104.88C121.004 104.967 120.874 104.958 120.753 104.936C117.915 104.508 115.094 103.894 112.377 102.968C111.014 102.501 109.677 101.951 108.388 101.306C107.124 100.67 106 99.8527 104.784 99.1475C104.425 98.9355 104.018 98.7495 103.59 98.7797C103.282 98.8014 104.169 99.7748 104.2 99.8051C104.606 100.203 105.03 100.588 105.48 100.939C107.739 102.678 110.426 103.872 113.199 104.945C116.595 106.26 120.173 107.078 123.898 107.446C124.322 107.485 124.742 107.554 125.171 107.606C125.162 107.645 125.158 107.684 125.149 107.723C124.426 107.671 123.699 107.623 122.981 107.563C119.866 107.303 116.833 106.741 113.895 105.862C109.27 104.482 105.082 102.479 101.422 99.7662C100.903 99.3855 100.397 99.3379 99.9899 99.6234C99.5703 99.9133 99.553 100.342 99.977 100.839C101.24 102.362 102.755 103.686 104.533 104.82C104.961 105.097 105.389 105.365 105.809 105.642C105.77 105.676 105.74 105.715 105.701 105.754C104.853 105.274 103.996 104.807 103.161 104.309C101.34 103.227 99.5227 102.141 97.7012 101.056C97.3248 100.831 96.944 100.757 96.5633 101.008C96.1782 101.259 96.1999 101.614 96.3859 101.942C96.5373 102.202 96.7364 102.449 96.9613 102.678C98.4454 104.171 100.219 105.386 102.136 106.481C102.915 106.927 103.702 107.346 104.494 107.783C100.427 106.498 96.7364 104.569 92.916 102.816C93.0242 102.977 93.1756 103.085 93.3443 103.176C95.075 104.11 96.7926 105.058 98.5362 105.975C100.275 106.888 102.019 107.792 103.88 108.428C104.784 108.735 105.701 108.977 106.623 109.198C107.44 109.397 109.201 110.133 109.976 109.635C110.028 109.596 110.079 109.553 110.11 109.492C110.166 109.375 110.127 109.237 110.045 109.146C109.958 109.055 109.846 108.995 109.729 108.947C109.521 108.856 109.309 108.77 109.102 108.696C109.032 108.649 108.972 108.601 108.903 108.558C109.084 108.48 109.201 108.489 109.309 108.519C110.118 108.748 110.923 108.977 111.737 109.207C111.741 113.183 114.921 123.004 114.921 123.004C114.298 115.532 114.544 111.474 114.692 110.003C114.904 110.05 115.18 110.111 115.561 110.189C115.7 113.144 116.414 130.078 114.692 135.084C114.692 135.084 121.541 117.773 118.715 110.695C119.819 110.855 120.93 110.998 122.038 111.097C122.73 111.158 123.47 110.985 124.154 110.816C124.634 110.699 124.894 110.34 124.79 109.89C124.682 109.436 124.292 109.263 123.777 109.198C122.999 109.099 122.215 109.025 121.441 108.887C119.888 108.618 118.343 108.311 116.794 108.03C116.812 107.982 116.82 107.935 116.833 107.9C116.941 107.913 117.05 107.922 117.153 107.935C118.317 108.103 119.481 108.29 120.645 108.441C123.063 108.765 125.508 108.787 127.944 108.657C129.151 108.597 130.371 108.497 131.578 108.38C132.184 108.328 132.79 108.268 133.395 108.203C133.953 108.151 134.494 108.142 135.009 107.9C135.139 107.835 135.26 107.775 135.386 107.705C135.498 107.645 135.585 107.545 135.684 107.454C135.736 107.407 135.788 107.364 135.797 107.294C135.805 107.217 135.753 107.108 135.684 107.065C135.636 107.035 135.585 107.026 135.528 107.009C135.368 106.974 135.199 106.966 135.039 106.966C134.633 106.957 134.235 106.974 133.828 106.996C133.793 106.996 133.759 106.996 133.724 107.005C132.989 107.039 132.262 107.078 131.526 107.104C128.363 107.217 125.209 107.095 122.094 106.65C119.343 106.269 116.682 105.616 114.129 104.69C113.895 104.608 113.666 104.521 113.433 104.422C113.229 104.331 113.03 104.231 112.831 104.132C116.427 105.343 120.147 106.022 124.007 106.299C129.389 106.676 134.62 105.914 139.825 104.928C140.205 104.859 140.603 104.599 140.833 104.331C141.239 103.863 140.919 103.357 140.223 103.258ZM109.521 108.917C109.409 108.887 109.309 108.835 109.21 108.77C109.314 108.817 109.422 108.869 109.521 108.917Z" fill="white"/>
</g>
<path d="M96.9531 60.9014C98.0607 61.7061 99.1034 62.632 100.289 63.3026C104.079 65.4486 107.787 65.0202 111.339 62.6709C113.044 61.5374 114.666 60.2654 116.414 59.1924C118.833 57.6997 121.42 56.5532 124.306 56.4061C125.348 56.3541 126.426 56.5445 127.447 56.7825C128.662 57.0637 129.251 57.9593 129.32 59.2097C129.441 61.4508 128.554 63.3286 127.161 64.9943C125.21 67.3306 122.644 68.78 119.88 69.9092C119.209 70.1861 118.512 70.4155 117.82 70.6534C117.517 70.7616 117.154 70.952 116.933 70.5323C116.734 70.1342 117.085 69.9785 117.331 69.7881C119.728 67.8887 119.546 64.2674 116.972 62.7012C114.982 61.4811 112.377 62.0652 111.131 63.9992C109.838 65.998 110.387 68.6459 112.364 69.9568C112.494 70.0434 112.633 70.1256 112.771 70.2035C113.191 70.4328 113.329 70.8005 113.251 71.2505C113.173 71.6875 112.892 71.9384 112.455 72.0076C108.483 72.6133 104.814 71.9687 101.708 69.2776C99.1207 67.0321 97.8184 64.0641 96.9531 60.9014Z" fill="white"/>
<mask id="mask1_74_372" style="mask-type:luminance" maskUnits="userSpaceOnUse" x="108" y="54" width="11" height="8">
<path d="M108.578 54H118.547V61.3292H108.578V54Z" fill="white"/>
</mask>
<g mask="url(#mask1_74_372)">
<path d="M118.326 56.8251C116.245 57.7899 114.207 58.772 112.139 59.6763C111.308 60.0354 110.404 60.2258 109.539 60.494C108.812 58.3956 109.945 56.055 112.018 55.0901C114.324 54.0258 117.132 54.8132 118.326 56.8251Z" fill="white"/>
</g>
<path d="M59 114.425H70.1798V113.889C66.8051 113.889 66.8051 110.081 66.8051 107.918V88.2926H90.8608V107.918C90.8608 110.081 90.8608 113.889 87.4861 113.889V114.425H98.6659V113.889C95.2912 113.889 95.2912 110.081 95.2912 107.918V76.6282C95.2912 74.465 95.2912 70.6576 98.6659 70.6576V70.1211H87.4861V70.6576C90.8608 70.6576 90.8608 74.465 90.8608 76.6282V87.3927H66.8051V76.6282C66.8051 74.465 66.8051 70.6576 70.1798 70.6576V70.1211H59V70.6576C62.3747 70.6576 62.3747 74.465 62.3747 76.6282V107.918C62.3747 110.081 62.3747 113.889 59 113.889V114.425Z" fill="white"/>
<path d="M135.424 113.889V114.425H168.167L171.802 104.145H171.265C169.552 108.039 163.962 113.542 154.876 113.542H143.229V88.2926H147.123C155.724 88.2926 160.466 87.8427 161.972 92.2731H162.508L164.221 87.3927H143.229V71.0037H154.53C159.583 71.0037 166.748 71.2287 169.448 77.0782H169.984V70.1211H135.424V70.6576C138.799 70.6576 138.799 74.465 138.799 76.6282V107.918C138.799 110.081 138.799 113.889 135.424 113.889Z" fill="white"/>
<path d="M173.566 70.1211V70.6576C176.941 70.6576 176.941 74.465 176.941 76.6282V107.918C176.941 110.081 176.941 113.889 173.566 113.889V114.425H205.254L208.888 104.145H208.352C206.621 108.039 201.049 113.542 191.963 113.542H181.372V76.6282C181.372 74.465 181.372 70.6576 184.746 70.6576V70.1211H173.566Z" fill="white"/>
<path d="M210.645 70.6576C214.019 70.6576 214.019 74.465 214.019 76.6282V107.918C214.019 110.081 214.019 113.889 210.645 113.889V114.425H221.824V113.889C218.45 113.889 218.45 110.081 218.45 107.918V76.6282C218.45 74.465 218.45 70.6576 221.824 70.6576V70.1211H210.645V70.6576Z" fill="white"/>
<path d="M84.0905 142.32C85.8558 142.32 87.2922 141.247 87.7421 139.62H86.773C86.3923 140.71 85.3539 141.402 84.1251 141.402C82.4984 141.402 81.3388 140.226 81.3388 138.53C81.3388 136.851 82.4984 135.674 84.1251 135.674C85.3366 135.674 86.323 136.314 86.7038 137.37H87.6729C87.1883 135.761 85.8038 134.757 84.0905 134.757C81.9446 134.757 80.4043 136.332 80.4043 138.53C80.4043 140.727 81.9446 142.32 84.0905 142.32Z" fill="white"/>
<path d="M91.4961 142.181H95.9611V141.299H92.4133V134.896H91.4961V142.181Z" fill="white"/>
<path d="M102.804 142.32C105.019 142.32 106.577 140.762 106.577 138.53C106.577 136.314 105.019 134.757 102.804 134.757C100.589 134.757 99.0312 136.314 99.0312 138.53C99.0312 140.762 100.589 142.32 102.804 142.32ZM99.9658 138.53C99.9658 136.834 101.125 135.674 102.804 135.674C104.483 135.674 105.642 136.834 105.642 138.53C105.642 140.226 104.483 141.402 102.804 141.402C101.125 141.402 99.9658 140.226 99.9658 138.53Z" fill="white"/>
<path d="M112.137 142.181H113.054V135.761H115.512V134.896H109.662V135.761H112.137V142.181Z" fill="white"/>
<path d="M123.87 142.181H124.787V134.896H123.87V138.028H119.993V134.896H119.076V142.181H119.993V138.893H123.87V142.181Z" fill="white"/>
<path d="M129.039 142.181H129.956V134.896H129.039V142.181Z" fill="white"/>
<path d="M134.225 142.181H135.142V136.47L139.174 142.181H140.022V134.896H139.122V140.589L135.09 134.896H134.225V142.181Z" fill="white"/>
<path d="M147.536 142.32C149.785 142.32 151.291 140.624 151.256 138.218H147.293V139.101H150.253C150.08 140.468 149.024 141.402 147.553 141.402C145.926 141.402 144.767 140.226 144.767 138.53C144.767 136.851 145.909 135.674 147.553 135.674C148.678 135.674 149.578 136.228 150.028 137.162H151.031C150.564 135.726 149.18 134.757 147.518 134.757C145.39 134.757 143.832 136.349 143.832 138.53C143.832 140.727 145.39 142.32 147.536 142.32Z" fill="white"/>
<path d="M162.185 142.32C163.778 142.32 164.799 141.541 164.799 140.26C164.799 139.187 164.089 138.547 162.22 138.08C160.801 137.751 160.334 137.37 160.334 136.764C160.334 136.072 160.957 135.622 161.995 135.622C163.068 135.622 163.743 136.176 163.76 137.041H164.677C164.66 135.622 163.639 134.757 161.995 134.757C160.403 134.757 159.399 135.536 159.399 136.764C159.399 137.889 160.195 138.512 161.995 138.945C163.31 139.256 163.864 139.62 163.864 140.295C163.864 141.022 163.206 141.437 162.185 141.437C161.043 141.437 160.247 140.883 160.23 139.949H159.312C159.33 141.368 160.437 142.32 162.185 142.32Z" fill="white"/>
<path d="M170.391 142.181H171.308V135.761H173.766V134.896H167.916V135.761H170.391V142.181Z" fill="white"/>
<path d="M180.654 142.32C182.869 142.32 184.426 140.762 184.426 138.53C184.426 136.314 182.869 134.757 180.654 134.757C178.438 134.757 176.881 136.314 176.881 138.53C176.881 140.762 178.438 142.32 180.654 142.32ZM177.815 138.53C177.815 136.834 178.975 135.674 180.654 135.674C182.332 135.674 183.492 136.834 183.492 138.53C183.492 140.226 182.332 141.402 180.654 141.402C178.975 141.402 177.815 140.226 177.815 138.53Z" fill="white"/>
<path d="M188.221 142.181H189.138V139.568H190.747L192.53 142.181H193.638L191.803 139.464C192.859 139.205 193.516 138.409 193.516 137.232C193.516 135.778 192.513 134.896 191.007 134.896H188.221V142.181ZM189.138 138.686V135.761H190.903C191.976 135.761 192.582 136.297 192.582 137.232C192.582 138.166 191.976 138.686 190.903 138.686H189.138Z" fill="white"/>
<path d="M197.455 142.181H202.007V141.333H198.372V138.893H201.626V138.045H198.372V135.744H201.885V134.896H197.455V142.181Z" fill="white"/>
</g>
<defs>
<filter id="filter0_d_74_372" x="0.599998" y="0.215233" width="279.624" height="204.504" filterUnits="userSpaceOnUse" color-interpolation-filters="sRGB">
<feFlood flood-opacity="0" result="BackgroundImageFix"/>
<feColorMatrix in="SourceAlpha" type="matrix" values="0 0 0 0 0 0 0 0 0 0 0 0 0 0 0 0 0 0 127 0" result="hardAlpha"/>
<feOffset dy="4"/>
<feGaussianBlur stdDeviation="29.2"/>
<feComposite in2="hardAlpha" operator="out"/>
<feColorMatrix type="matrix" values="0 0 0 0 0 0 0 0 0 0 0 0 0 0 0 0 0 0 0.25 0"/>
<feBlend mode="normal" in2="BackgroundImageFix" result="effect1_dropShadow_74_372"/>
<feBlend mode="normal" in="SourceGraphic" in2="effect1_dropShadow_74_372" result="shape"/>
</filter>
</defs>
</svg>
