<svg width="326" height="178" viewBox="0 0 326 178" fill="none" xmlns="http://www.w3.org/2000/svg" xmlns:xlink="http://www.w3.org/1999/xlink">
<g filter="url(#filter136_993)">
<path d="M162.445,98.515C162.03,98.455 161.571,98.49 161.156,98.533C158.69,98.827 156.241,99.164 153.775,99.424C152.061,99.606 150.331,99.701 148.6,99.822C148.678,99.571 148.791,99.545 148.894,99.528C150.625,99.225 152.382,98.965 154.086,98.576C155.306,98.308 155.964,97.46 155.895,96.543C155.817,95.53 155.064,94.907 153.93,94.717C153.031,94.57 152.061,94.63 151.127,94.673C147.345,94.829 143.581,95.011 139.8,95.167C139.385,95.184 138.969,95.106 138.554,95.072C139.921,94.795 141.28,94.717 142.63,94.552C144.144,94.371 144.871,93.722 144.775,92.761C144.68,91.766 143.936,91.333 142.327,91.29C135.508,91.108 128.793,90.477 122.295,88.677C121.023,88.322 119.768,87.889 118.513,87.491C118.79,87.292 118.972,87.327 119.162,87.344C123.065,87.846 127.331,88.945 131.285,88.348C131.744,88.279 132.298,88.063 132.298,87.604C132.298,87.145 131.727,86.929 131.268,86.816C127.841,86.098 124.458,85.138 121.161,83.961C119.465,83.347 117.778,82.672 116.108,81.936C115.043,81.46 112.266,80.699 111.721,79.643C111.643,79.254 112.586,79.73 113.295,79.989C117.501,81.555 122.087,81.798 126.491,82.672C127.365,82.836 128.438,82.992 128.897,82.118C129.373,81.218 128.317,80.88 127.608,80.508C124.657,78.977 121.689,77.462 118.73,75.948C116.021,74.555 112.785,73.395 110.388,71.492C113.918,71.968 117.475,72.444 121.014,72.937C121.352,72.98 121.853,72.824 121.732,72.522C118.574,70.912 115.407,69.285 112.257,67.684C115.043,68.022 117.83,68.351 120.599,68.68C121.057,68.74 121.672,68.68 121.75,68.23C121.81,67.909 121.516,67.632 121.256,67.433C120.08,66.577 118.764,65.962 117.44,65.357C115.104,64.266 112.759,63.176 110.431,62.094C111.409,61.904 112.422,62.034 113.417,62.155C114.81,62.319 116.22,62.493 117.631,62.657C118.669,62.778 120.555,63.427 121.438,62.674C121.732,62.432 121.949,62.094 122.113,61.757C122.805,60.442 123.151,58.988 123.385,57.517C123.627,56.011 124.025,54.653 124.475,53.199C125.358,50.24 126.266,47.289 127.184,44.33C127.383,43.707 127.288,43.43 126.604,43.213C121.975,41.76 117.553,41.941 113.356,44.503C113.114,44.65 112.586,44.65 112.361,44.503C108.259,41.985 103.924,41.777 99.373,43.118C98.533,43.369 98.334,43.689 98.594,44.511C99.433,47.211 100.247,49.92 101.06,52.628C101.493,54.021 101.899,55.432 102.315,56.825C102.496,57.439 102.695,58.036 102.886,58.651C103.05,59.23 103.344,59.732 103.587,60.303C103.924,61.082 104.599,61.575 105.283,61.921C106.235,62.415 107.204,62.873 108.164,63.315C109.133,63.765 110.111,64.206 111.089,64.63C111.868,64.985 113.019,65.815 113.858,65.902C112.222,65.737 110.596,65.564 108.96,65.383C108.147,65.296 106.892,65.028 106.537,65.599C105.94,66.438 107.766,66.975 108.623,67.356C111.92,68.818 115.208,70.254 118.496,71.708C118.271,72.123 116.385,71.708 115.329,71.535C115.286,71.526 115.242,71.526 115.173,71.509C113.183,71.172 111.184,70.851 109.194,70.514C108.242,70.358 107.273,70.497 108.268,71.449C108.424,71.587 108.657,71.674 108.839,71.786C113.616,74.494 118.375,77.186 123.151,79.903C123.446,80.067 123.705,80.249 123.982,80.439C118.946,79.825 113.979,78.535 109.038,77.436C108.268,77.263 107.472,77.099 106.71,77.298C105.854,77.523 107.429,78.336 107.662,78.492C108.104,78.752 108.545,79.029 109.004,79.254C110.232,79.868 111.47,80.482 112.716,81.079C115.173,82.291 117.657,83.494 120.123,84.705C120.936,85.103 121.776,85.423 122.606,85.778C122.554,85.891 122.494,85.977 122.45,86.09C120.703,85.614 118.851,85.302 117.233,84.627C113.373,83.026 109.601,81.244 105.819,79.505C104.963,79.107 102.652,78.89 103.085,80.569C103.171,80.906 103.422,81.175 103.682,81.417C105.213,82.914 106.849,84.29 108.58,85.553C106.131,84.921 104.201,83.009 101.795,82.196C101.077,81.953 100.264,81.815 99.546,82.04C98.81,82.291 98.196,82.992 98.274,83.762C98.334,84.402 98.853,84.904 99.347,85.337C100.48,86.349 101.596,87.37 102.73,88.383C101.103,87.526 99.468,86.669 97.841,85.813C97.175,85.458 96.465,85.086 95.712,85.06C94.83,85.017 93.861,85.562 93.679,86.436C93.463,87.448 94.311,88.339 95.072,89.006C103.232,95.98 113.598,100.038 124.181,101.76C124.008,101.933 123.748,101.916 123.506,101.873C117.83,101.016 112.188,99.787 106.754,97.936C104.028,97.001 101.354,95.902 98.776,94.613C96.249,93.341 93.999,91.705 91.567,90.295C90.849,89.871 90.036,89.499 89.179,89.559C88.565,89.603 90.339,91.55 90.399,91.61C91.213,92.406 92.061,93.176 92.961,93.877C97.478,97.356 102.851,99.744 108.398,101.89C115.19,104.521 122.347,106.156 129.797,106.892C130.645,106.97 131.484,107.108 132.341,107.212C132.324,107.29 132.315,107.368 132.298,107.445C130.853,107.342 129.399,107.246 127.962,107.125C121.732,106.606 115.666,105.481 109.791,103.725C100.541,100.964 92.165,96.958 84.844,91.532C83.806,90.771 82.793,90.676 81.98,91.247C81.141,91.827 81.106,92.683 81.954,93.678C84.481,96.724 87.509,99.372 91.066,101.639C91.922,102.193 92.779,102.73 93.618,103.283C93.54,103.353 93.48,103.43 93.402,103.508C91.706,102.548 89.993,101.613 88.323,100.618C84.68,98.455 81.045,96.283 77.402,94.111C76.65,93.661 75.888,93.514 75.127,94.016C74.356,94.518 74.4,95.227 74.772,95.885C75.075,96.404 75.473,96.897 75.923,97.356C78.891,100.341 82.438,102.773 86.272,104.962C87.829,105.853 89.404,106.693 90.988,107.567C82.854,104.997 75.473,101.137 67.832,97.633C68.048,97.953 68.351,98.169 68.689,98.351C72.15,100.22 75.585,102.115 79.072,103.95C82.551,105.775 86.038,107.584 89.759,108.856C91.567,109.47 93.402,109.955 95.245,110.396C96.881,110.794 100.402,112.265 101.951,111.27C102.055,111.192 102.159,111.106 102.219,110.985C102.332,110.751 102.254,110.474 102.09,110.292C101.917,110.111 101.692,109.99 101.458,109.894C101.043,109.713 100.619,109.54 100.203,109.392C100.065,109.297 99.944,109.202 99.805,109.116C100.169,108.96 100.402,108.977 100.619,109.038C102.237,109.496 103.846,109.955 105.473,110.414C105.482,118.366 111.842,138.008 111.842,138.008C110.596,123.064 111.089,114.948 111.383,112.006C111.807,112.101 112.361,112.222 113.122,112.378C113.399,118.288 114.827,152.156 111.383,162.168C111.383,162.168 125.081,127.547 119.431,113.39C121.637,113.71 123.861,113.996 126.076,114.195C127.461,114.316 128.94,113.97 130.307,113.632C131.268,113.399 131.787,112.681 131.579,111.781C131.363,110.872 130.584,110.526 129.555,110.396C127.997,110.197 126.431,110.05 124.882,109.773C121.776,109.237 118.686,108.622 115.589,108.06C115.623,107.965 115.64,107.869 115.666,107.8C115.883,107.826 116.099,107.844 116.307,107.869C118.634,108.207 120.962,108.579 123.29,108.882C128.127,109.531 133.016,109.574 137.888,109.315C140.302,109.193 142.742,108.994 145.156,108.761C146.368,108.657 147.579,108.536 148.791,108.406C149.907,108.302 150.988,108.285 152.018,107.8C152.278,107.67 152.52,107.549 152.771,107.411C152.996,107.29 153.169,107.091 153.368,106.909C153.472,106.814 153.576,106.727 153.593,106.589C153.61,106.433 153.506,106.217 153.368,106.13C153.273,106.07 153.169,106.052 153.057,106.018C152.736,105.949 152.399,105.931 152.079,105.931C151.265,105.914 150.469,105.949 149.656,105.992C149.587,105.992 149.517,105.992 149.448,106.009C147.977,106.078 146.523,106.156 145.052,106.208C138.727,106.433 132.419,106.191 126.189,105.3C120.685,104.538 115.364,103.231 110.258,101.38C109.791,101.215 109.332,101.042 108.865,100.843C108.458,100.661 108.06,100.462 107.662,100.263C114.853,102.686 122.295,104.045 130.013,104.599C140.778,105.351 151.239,103.828 161.649,101.856C162.411,101.717 163.207,101.198 163.665,100.661C164.479,99.727 163.838,98.714 162.445,98.515ZM101.043,109.834C100.818,109.773 100.619,109.669 100.42,109.54C100.627,109.635 100.844,109.739 101.043,109.834Z" fill="#FFFFFF"/>
<path d="M75.906,13.803C78.121,15.412 80.207,17.264 82.578,18.605C90.158,22.897 97.574,22.04 104.678,17.342C108.087,15.075 111.332,12.531 114.828,10.385C119.665,7.399 124.84,5.106 130.611,4.812C132.697,4.708 134.851,5.089 136.893,5.565C139.325,6.127 140.502,7.919 140.64,10.419C140.882,14.902 139.109,18.657 136.322,21.989C132.42,26.661 127.288,29.56 121.759,31.819C120.418,32.372 119.025,32.831 117.64,33.307C117.034,33.523 116.308,33.904 115.866,33.065C115.468,32.269 116.169,31.957 116.662,31.576C121.456,27.778 121.093,20.535 115.944,17.402C111.964,14.962 106.755,16.13 104.262,19.998C101.675,23.996 102.774,29.292 106.729,31.914C106.988,32.087 107.265,32.251 107.542,32.407C108.381,32.866 108.658,33.601 108.502,34.501C108.347,35.375 107.784,35.877 106.91,36.015C98.967,37.227 91.629,35.937 85.416,30.555C80.241,26.064 77.637,20.128 75.906,13.803Z" fill="#FFFFFF"/>
<path d="M118.652,5.65C114.49,7.58 110.414,9.544 106.278,11.353C104.617,12.071 102.808,12.452 101.078,12.988C99.624,8.791 101.891,4.11 106.036,2.18C110.648,0.052 116.264,1.626 118.652,5.65Z" fill="#FFFFFF"/>
<path d="M0,120.85L22.36,120.85L22.36,119.777C15.61,119.777 15.61,112.162 15.61,107.836L15.61,68.585L63.722,68.585L63.722,107.836C63.722,112.162 63.722,119.777 56.972,119.777L56.972,120.85L79.332,120.85L79.332,119.777C72.582,119.777 72.582,112.162 72.582,107.836L72.582,45.256C72.582,40.93 72.582,33.315 79.332,33.315L79.332,32.242L56.972,32.242L56.972,33.315C63.722,33.315 63.722,40.93 63.722,45.256L63.722,66.785L15.61,66.785L15.61,45.256C15.61,40.93 15.61,33.315 22.36,33.315L22.36,32.242L0,32.242L0,33.315C6.749,33.315 6.749,40.93 6.749,45.256L6.749,107.836C6.749,112.162 6.749,119.777 0,119.777L0,120.85Z" fill="#FFFFFF"/>
<path d="M152.848,119.777L152.848,120.85L218.334,120.85L225.603,100.29L224.53,100.29C221.103,108.078 209.924,119.085 191.752,119.085L168.458,119.085L168.458,68.585L176.246,68.585C193.448,68.585 202.932,67.685 205.943,76.546L207.016,76.546L210.443,66.785L168.458,66.785L168.458,34.007L191.06,34.007C201.167,34.007 215.496,34.457 220.896,46.156L221.969,46.156L221.969,32.242L152.848,32.242L152.848,33.315C159.597,33.315 159.597,40.93 159.597,45.256L159.597,107.836C159.597,112.162 159.597,119.777 152.848,119.777Z" fill="#FFFFFF"/>
<path d="M229.133,32.242L229.133,33.315C235.882,33.315 235.882,40.93 235.882,45.256L235.882,107.836C235.882,112.162 235.882,119.777 229.133,119.777L229.133,120.85L292.508,120.85L299.777,100.29L298.704,100.29C295.243,108.078 284.097,119.085 265.926,119.085L244.743,119.085L244.743,45.256C244.743,40.93 244.743,33.315 251.492,33.315L251.492,32.242L229.133,32.242Z" fill="#FFFFFF"/>
<path d="M303.289,33.315C310.039,33.315 310.039,40.93 310.039,45.256L310.039,107.836C310.039,112.162 310.039,119.777 303.289,119.777L303.289,120.85L325.649,120.85L325.649,119.777C318.899,119.777 318.899,112.162 318.899,107.836L318.899,45.256C318.899,40.93 318.899,33.315 325.649,33.315L325.649,32.242L303.289,32.242L303.289,33.315Z" fill="#FFFFFF"/>
<path d="M50.181,176.639C53.712,176.639 56.584,174.493 57.484,171.24L55.546,171.24C54.785,173.42 52.708,174.805 50.25,174.805C46.997,174.805 44.678,172.451 44.678,169.059C44.678,165.702 46.997,163.348 50.25,163.348C52.673,163.348 54.646,164.629 55.408,166.74L57.346,166.74C56.377,163.521 53.608,161.514 50.181,161.514C45.889,161.514 42.809,164.663 42.809,169.059C42.809,173.455 45.889,176.639 50.181,176.639Z" fill="#FFFFFF"/>
<path d="M64.992,176.363L73.922,176.363L73.922,174.598L66.827,174.598L66.827,161.791L64.992,161.791L64.992,176.363Z" fill="#FFFFFF"/>
<path d="M87.608,176.639C92.038,176.639 95.154,173.524 95.154,169.059C95.154,164.629 92.038,161.514 87.608,161.514C83.178,161.514 80.063,164.629 80.063,169.059C80.063,173.524 83.178,176.639 87.608,176.639ZM81.932,169.059C81.932,165.667 84.251,163.348 87.608,163.348C90.965,163.348 93.284,165.667 93.284,169.059C93.284,172.451 90.965,174.805 87.608,174.805C84.251,174.805 81.932,172.451 81.932,169.059Z" fill="#FFFFFF"/>
<path d="M106.274,176.363L108.108,176.363L108.108,163.522L113.023,163.522L113.023,161.791L101.324,161.791L101.324,163.522L106.274,163.522L106.274,176.363Z" fill="#FFFFFF"/>
<path d="M129.74,176.363L131.574,176.363L131.574,161.791L129.74,161.791L129.74,168.056L121.987,168.056L121.987,161.791L120.152,161.791L120.152,176.363L121.987,176.363L121.987,169.786L129.74,169.786L129.74,176.363Z" fill="#FFFFFF"/>
<rect  x="140.078" y="161.791" width="1.834" height="14.572" fill="#FFFFFF"/>
<path d="M150.449,176.363L152.284,176.363L152.284,164.941L160.348,176.363L162.044,176.363L162.044,161.791L160.245,161.791L160.245,173.179L152.18,161.791L150.449,161.791L150.449,176.363Z" fill="#FFFFFF"/>
<path d="M177.071,176.639C181.571,176.639 184.582,173.247 184.513,168.436L176.587,168.436L176.587,170.201L182.505,170.201C182.159,172.936 180.048,174.805 177.106,174.805C173.852,174.805 171.533,172.451 171.533,169.059C171.533,165.702 173.818,163.348 177.106,163.348C179.356,163.348 181.155,164.456 182.055,166.325L184.063,166.325C183.128,163.452 180.359,161.514 177.037,161.514C172.779,161.514 169.664,164.698 169.664,169.059C169.664,173.455 172.779,176.639 177.071,176.639Z" fill="#FFFFFF"/>
<path d="M206.371,176.639C209.555,176.639 211.597,175.082 211.597,172.52C211.597,170.374 210.178,169.094 206.44,168.159C203.602,167.502 202.667,166.74 202.667,165.529C202.667,164.144 203.913,163.244 205.99,163.244C208.136,163.244 209.486,164.352 209.52,166.083L211.355,166.083C211.32,163.244 209.278,161.514 205.99,161.514C202.806,161.514 200.798,163.071 200.798,165.529C200.798,167.779 202.39,169.025 205.99,169.89C208.62,170.513 209.728,171.24 209.728,172.59C209.728,174.043 208.413,174.874 206.371,174.874C204.086,174.874 202.494,173.766 202.459,171.897L200.625,171.897C200.66,174.736 202.875,176.639 206.371,176.639Z" fill="#FFFFFF"/>
<path d="M222.782,176.363L224.616,176.363L224.616,163.522L229.531,163.522L229.531,161.791L217.832,161.791L217.832,163.522L222.782,163.522L222.782,176.363Z" fill="#FFFFFF"/>
<path d="M243.307,176.639C247.738,176.639 250.853,173.524 250.853,169.059C250.853,164.629 247.738,161.514 243.307,161.514C238.877,161.514 235.762,164.629 235.762,169.059C235.762,173.524 238.877,176.639 243.307,176.639ZM237.631,169.059C237.631,165.667 239.95,163.348 243.307,163.348C246.665,163.348 248.984,165.667 248.984,169.059C248.984,172.451 246.665,174.805 243.307,174.805C239.95,174.805 237.631,172.451 237.631,169.059Z" fill="#FFFFFF"/>
<path d="M258.441,176.363L260.276,176.363L260.276,171.136L263.495,171.136L267.06,176.363L269.275,176.363L265.606,170.929C267.718,170.41 269.033,168.817 269.033,166.464C269.033,163.556 267.025,161.791 264.014,161.791L258.441,161.791L258.441,176.363ZM260.276,169.371L260.276,163.522L263.806,163.522C265.952,163.522 267.164,164.595 267.164,166.464C267.164,168.333 265.952,169.371 263.806,169.371L260.276,169.371Z" fill="#FFFFFF"/>
<path d="M276.91,176.363L286.013,176.363L286.013,174.667L278.745,174.667L278.745,169.786L285.252,169.786L285.252,168.09L278.745,168.09L278.745,163.487L285.771,163.487L285.771,161.791L276.91,161.791L276.91,176.363Z" fill="#FFFFFF"/>
</g>
<defs>
<filter id="filter136_993" x="-58.400002" y="-58.400002" width="279.624786" height="205.119591" filterUnits="userSpaceOnUse" color-interpolation-filters="sRGB">
<feFlood flood-opacity="0" result="BackgroundImageFix"/>
<feColorMatrix in="SourceAlpha" type="matrix" values="0 0 0 0 0 0 0 0 0 0 0 0 0 0 0 0 0 0 127 0" result="hardAlpha"/>
<feMorphology radius="0" operator="dilate" in="SourceAlpha" result="0dropshadow"/>
<feOffset dx="0" dy="4"/>
<feGaussianBlur stdDeviation="29.200001"/>
<feComposite in2="hardAlpha" operator="out"/>
<feColorMatrix type="matrix" values="0 0 0 0 0 0 0 0 0 0 0 0 0 0 0 0 0 0 0.25 0"/>
<feBlend mode="normal" in2="BackgroundImageFix" result="0dropshadow"/>
<feBlend mode="normal" in="SourceGraphic" in2="0dropshadow" result="shape"/>
</filter>
</defs>
</svg>
