<svg width="44" height="44" viewBox="0 0 44 44" fill="none" xmlns="http://www.w3.org/2000/svg" xmlns:xlink="http://www.w3.org/1999/xlink">
<path d="M37.949,7.668L34.884,7.668C34.769,3.528 31.261,0 26.905,0C22.531,0 19.023,3.528 18.907,7.668L15.843,7.668C11.834,7.668 9.791,9.699 9.791,13.78L9.791,21.271C16.632,21.271 22.241,27.007 22.241,33.986C22.241,36.273 21.625,38.421 20.565,40.294L38.527,40.294C41.976,40.294 44,38.244 44,34.183L44,13.78C44,9.718 41.958,7.668 37.949,7.668ZM26.905,2.996C29.622,2.996 31.684,5.086 31.781,7.668L22.028,7.668C22.106,5.086 24.168,2.996 26.905,2.996ZM9.79,44C15.11,44 19.581,39.466 19.581,33.986C19.581,28.505 15.168,23.972 9.79,23.972C4.433,23.972 0,28.505 0,33.986C0,39.506 4.432,44 9.79,44ZM9.81,40.491C9.136,40.491 8.538,40.018 8.538,39.288L8.538,35.189L4.857,35.189C4.203,35.189 3.662,34.636 3.662,33.986C3.662,33.336 4.203,32.783 4.857,32.783L8.539,32.783L8.539,28.704C8.539,27.955 9.136,27.481 9.811,27.481C10.466,27.481 11.063,27.954 11.063,28.704L11.063,32.784L14.745,32.784C15.4,32.784 15.92,33.336 15.92,33.987C15.92,34.637 15.4,35.189 14.745,35.189L11.063,35.189L11.063,39.29C11.063,40.019 10.466,40.493 9.811,40.493Z" transform="rotate(360 22 22)" fill="#FFFFFF"/>
</svg>
