<svg width="38" height="34" viewBox="0 0 38 34" fill="none" xmlns="http://www.w3.org/2000/svg" xmlns:xlink="http://www.w3.org/1999/xlink">
<path d="M3.073,3.557C4.949,1.682 7.492,0.629 10.143,0.629C12.795,0.629 15.338,1.682 17.213,3.557C17.58,3.922 18.052,4.377 18.629,4.921C19.205,4.377 19.677,3.922 20.043,3.557C21.911,1.698 24.436,0.652 27.071,0.644C29.706,0.637 32.237,1.67 34.114,3.519C35.991,5.368 37.063,7.883 37.097,10.517C37.13,13.152 36.123,15.693 34.293,17.589L20.041,31.841C19.666,32.216 19.158,32.426 18.627,32.426C18.097,32.426 17.588,32.216 17.213,31.841L2.961,17.591C1.133,15.706 0.12,13.177 0.141,10.551C0.162,7.925 1.216,5.413 3.073,3.557Z" clip-rule="evenodd" fill-rule="evenodd" fill="#FFFFFF"/>
</svg>
